<svg width="93" height="38" viewBox="0 0 93 38" fill="none" xmlns="http://www.w3.org/2000/svg">
<g clip-path="url(#clip0_1_3438)">
<path d="M30.1118 16.9477C30.1118 15.3156 28.4797 13.5746 25.7595 13.5746C22.7129 13.5746 19.231 15.8596 18.687 20.4295C18.143 24.9994 20.972 27.0667 23.9098 27.0667C26.8476 27.0667 28.2621 25.9787 29.7854 24.4554C28.4797 22.8233 26.7388 23.5849 26.4123 23.6937C26.0859 23.9113 25.5419 24.1289 24.6714 24.1289C23.5833 24.1289 22.3865 23.5849 22.3865 21.5176C29.5677 20.7559 30.1118 18.5798 30.1118 16.9477ZM26.6299 17.1653C26.6299 17.7093 26.4123 18.5798 22.8217 19.015C23.5833 16.2948 24.9978 16.0772 25.6507 16.0772C26.3035 16.186 26.6299 16.6212 26.6299 17.1653ZM14.5523 17.6005C14.5523 17.6005 13.029 22.388 12.9202 22.8233C12.9202 22.388 11.7233 13.7922 11.7233 13.7922C9.11197 13.7922 7.69747 15.642 7.04463 17.6005C7.04463 17.6005 5.19491 22.388 5.0861 22.8233C4.97729 22.4968 4.75968 17.7093 4.75968 17.7093C4.54206 15.3156 2.36592 13.7922 0.625 13.7922L2.80115 26.8491C5.52133 26.8491 7.04463 24.9994 7.80628 23.0409C7.80628 23.0409 9.43839 18.7974 9.5472 18.5798C9.5472 18.7974 10.7441 26.8491 10.7441 26.8491C13.4643 26.8491 14.9876 25.1082 15.7492 23.2585L19.5575 13.7922C16.7285 13.7922 15.314 15.642 14.5523 17.6005ZM40.2309 13.4658C38.5987 13.4658 37.2931 14.3363 36.205 15.7508L37.0754 7.91666C34.7905 7.91666 33.0496 9.87519 32.6143 12.7042L30.8734 26.7403C32.1791 26.7403 33.4848 26.4139 34.2465 25.4346C34.8993 26.3051 35.8786 26.9579 37.2931 26.9579C41.1013 26.9579 43.7127 22.6056 43.7127 18.471C43.8215 14.6627 41.9718 13.4658 40.2309 13.4658ZM39.7956 20.2119C39.3604 22.4968 38.1635 24.0201 36.8578 24.0201C35.6609 24.0201 35.1169 23.4761 35.1169 23.4761C35.3345 21.5176 35.5521 20.2119 35.9874 19.1238C36.4226 18.0357 37.5107 16.4036 38.5987 16.4036C39.6868 16.5124 40.2309 17.9269 39.7956 20.2119ZM53.2877 13.7922H50.6764V13.6834C50.894 11.9425 51.2204 11.0721 52.6349 10.9633C53.5053 10.8545 53.9406 10.4192 54.0494 9.87519C54.1582 9.43996 54.3758 8.02546 54.3758 8.02546C49.0442 8.02546 47.4121 10.3104 46.9769 13.7922V13.9011H46.8681C45.9976 13.9011 45.0184 14.8803 44.9096 16.0772L44.8008 16.5124H46.5417L45.0184 28.6988L44.5831 30.875C44.692 30.875 44.692 30.875 44.8008 30.875C47.3033 30.7662 48.8266 28.8077 49.2619 25.9787L50.4587 16.4036H51.3292C52.0908 16.4036 53.0701 15.642 53.2877 14.2275V13.7922ZM66.9975 13.5746C63.9508 13.5746 61.1219 15.8596 60.2514 19.3414C59.3809 22.8233 60.6866 27.0667 65.1477 27.0667C69.6088 27.0667 72.2202 22.7144 72.2202 19.1238C72.1114 15.5332 69.7176 13.5746 66.9975 13.5746ZM68.1943 20.1031C68.0855 21.7352 67.3239 24.1289 65.3653 24.1289C63.4068 24.1289 63.7332 21.3 63.842 19.9943C64.0597 18.5798 64.8213 16.5124 66.5622 16.5124C68.1943 16.5124 68.4119 18.3622 68.1943 20.1031ZM87.2356 17.6005C87.2356 17.6005 85.7123 22.388 85.6035 22.8233C85.6035 22.388 84.4066 13.7922 84.4066 13.7922C81.7952 13.7922 80.3807 15.642 79.7279 17.6005C79.7279 17.6005 77.8782 22.388 77.7694 22.8233C77.7694 22.4968 77.4429 17.7093 77.4429 17.7093C77.3341 15.3156 75.0492 13.9011 73.3083 13.9011L75.4844 26.9579C78.2046 26.9579 79.7279 25.1082 80.4896 23.1497C80.4896 23.1497 82.1217 18.9062 82.2305 18.6886C82.2305 18.9062 83.4273 26.9579 83.4273 26.9579C86.1475 26.9579 87.6708 25.217 88.4325 23.3673L92.0231 13.7922C89.3029 13.7922 87.8884 15.642 87.2356 17.6005ZM55.7903 8.02546L53.6142 25.8699L53.1789 28.046C53.2877 28.046 53.2877 28.046 53.3965 28.046C55.7903 28.046 57.5312 25.8699 57.7488 23.2585L59.0545 13.0306C59.3809 9.98399 57.4224 8.02546 55.7903 8.02546Z" fill="white"/>
</g>
<defs>
<clipPath id="clip0_1_3438">
<rect width="91.8334" height="38" fill="white" transform="translate(0.625)"/>
</clipPath>
</defs>
</svg>
