<svg width="24" height="24" viewBox="0 0 24 24" fill="none" xmlns="http://www.w3.org/2000/svg">
<path d="M20.4702 5.63005C20.8602 6.02005 20.8602 6.64005 20.4702 7.03005L9.1302 18.37C8.7402 18.76 8.1202 18.76 7.7302 18.37L3.5302 14.17C3.1402 13.78 3.1402 13.16 3.5302 12.77C3.9202 12.38 4.5402 12.38 4.9302 12.77L8.4302 16.27L19.0702 5.63005C19.4602 5.24005 20.0802 5.24005 20.4702 5.63005ZM18.3602 3.51005L8.4302 13.44L5.6402 10.65C4.8602 9.87005 3.5902 9.87005 2.8102 10.65L1.4102 12.05C0.630195 12.83 0.630195 14.1 1.4102 14.88L7.0102 20.48C7.7902 21.26 9.0602 21.26 9.8402 20.48L22.5902 7.74005C23.3702 6.96005 23.3702 5.69005 22.5902 4.91005L21.1902 3.51005C20.4002 2.73005 19.1402 2.73005 18.3602 3.51005V3.51005Z" fill="#2596BE"/>
</svg>
